<svg version="1.1" id="Layer_1" xmlns="http://www.w3.org/2000/svg" xmlns:xlink="http://www.w3.org/1999/xlink" x="0px" y="0px"
	 width="100%" viewBox="0 0 400 368" enable-background="new 0 0 400 368" xml:space="preserve">
<path fill="#000000" opacity="1.000000" stroke="none" 
	d="
M318.717834,331.883240 
	C318.273712,326.890900 320.744354,322.206787 317.970795,317.410889 
	C311.458435,318.625427 305.191711,320.782440 298.608368,321.641022 
	C278.609955,324.249146 259.116547,322.272186 240.066132,315.909485 
	C234.829926,314.160645 229.920792,311.517609 226.850204,306.557861 
	C225.745300,304.773132 224.297653,304.219696 222.266129,304.262512 
	C168.745926,305.390594 121.874847,286.856171 79.378296,255.647446 
	C63.680088,244.118958 47.544701,233.085297 33.999939,218.894852 
	C21.052382,205.330048 11.089607,189.999191 5.780466,171.789581 
	C1.045398,155.548950 5.898224,141.086060 13.116413,125.930634 
	C20.325598,133.087265 24.953945,141.464340 33.075516,148.547043 
	C31.620649,140.163071 30.429419,133.032654 29.139175,125.920197 
	C26.701851,112.484436 26.675470,99.229965 30.799547,86.001450 
	C34.883549,72.901474 44.401752,64.819603 55.618328,57.044765 
	C59.869972,67.147659 62.275425,77.440666 68.684074,87.670120 
	C67.308823,53.835312 80.878983,28.433681 106.365578,7.765512 
	C109.575081,20.756769 110.031975,33.698936 116.493668,45.084259 
	C122.785004,56.169449 130.117661,66.267647 140.565826,75.724754 
	C140.258698,65.040131 141.237305,55.685482 146.366791,47.374664 
	C151.341614,39.314430 159.024475,34.050476 166.832565,27.737051 
	C169.154602,56.036041 186.044220,75.698654 204.445450,96.205292 
	C207.804337,74.708000 219.781784,60.928364 238.508392,51.897835 
	C240.153168,60.225830 241.632019,68.327034 243.365814,76.373314 
	C247.906860,97.447487 254.068970,117.937904 265.401337,136.539246 
	C270.184357,144.390274 275.883087,151.548935 281.593781,158.722046 
	C286.609924,165.022736 294.047516,164.434677 300.726715,165.580917 
	C311.015289,167.346588 321.702759,166.950409 331.539246,171.123779 
	C343.355133,176.136978 352.974426,183.609619 356.402832,196.614319 
	C358.798798,205.702972 357.920624,214.782700 353.604797,223.333954 
	C352.639221,225.247147 351.652100,227.149475 350.725555,228.957932 
	C351.910736,230.946838 353.880341,231.120819 355.501221,231.842606 
	C365.581635,236.331421 375.197327,241.535400 383.707855,248.701431 
	C397.192078,260.055420 400.862640,274.352722 396.529358,290.954895 
	C392.427063,306.672028 382.595306,319.222534 372.964996,331.780273 
	C358.767395,350.293762 338.972443,359.580750 316.963959,365.031586 
	C316.216797,365.216644 315.383789,365.055084 314.069641,365.055084 
	C315.652313,353.889191 317.179108,343.117432 318.717834,331.883240 
M234.700287,92.643402 
	C232.356796,86.023453 231.479828,78.894012 227.452301,72.582497 
	C215.151550,90.203209 214.479507,108.582771 223.587646,128.019028 
	C195.777969,107.909180 174.210800,82.843834 159.411407,51.384178 
	C151.894104,62.047493 152.109848,72.930511 156.622833,83.932587 
	C160.818649,94.161392 167.188797,103.173149 173.740326,112.027191 
	C174.438599,112.970871 176.012787,113.688141 174.798096,115.753410 
	C143.553772,93.802391 110.892242,73.458374 99.270500,33.253613 
	C92.424767,39.504375 86.048355,52.563316 83.316040,65.161530 
	C81.497032,73.548584 80.735863,82.096878 83.758682,90.280724 
	C90.194016,107.703430 100.135338,122.619347 116.054909,132.946609 
	C117.634583,133.971359 119.472359,134.825317 120.664360,137.533066 
	C84.890869,131.502670 62.903545,110.416580 50.788048,77.018654 
	C43.099037,85.482040 40.775101,94.760826 40.520893,104.181786 
	C39.720116,133.858856 49.218513,158.791656 76.230766,174.577927 
	C74.012161,177.503708 71.567421,177.987671 69.121208,178.302597 
	C63.684914,179.002502 58.546066,177.931763 53.601131,175.598053 
	C40.843155,169.577103 30.529531,160.528809 21.439224,149.918930 
	C20.225109,148.501862 19.579739,146.326141 16.844742,146.163971 
	C15.892528,150.646576 16.108393,155.059204 16.753574,159.469910 
	C19.567898,178.709747 29.442839,194.313141 42.282482,208.267395 
	C55.233280,222.342484 70.991913,233.080933 86.327797,244.249603 
	C117.110344,266.667633 150.235489,284.537964 188.611267,288.996796 
	C223.348328,293.032806 220.650696,296.181488 250.955032,277.460297 
	C254.228928,275.437775 257.506958,273.198181 261.388367,272.880066 
	C282.887177,271.117950 295.309174,255.172424 298.797119,235.880432 
	C299.311066,233.037720 299.101501,229.962250 300.763489,226.979950 
	C308.102997,229.063904 315.444427,230.221512 322.995575,229.701141 
	C333.399658,228.984116 341.053284,224.708023 344.602966,214.284576 
	C347.962158,204.420441 345.923248,195.953659 337.918304,188.501282 
	C329.273712,180.453445 318.347382,179.291458 307.325409,178.266083 
	C291.686890,176.811188 277.286652,174.730850 266.715515,159.704468 
	C252.281601,139.187378 242.177063,117.111443 234.700287,92.643402 
M354.290710,333.798248 
	C366.044586,323.323639 374.496704,310.351562 381.785156,296.622955 
	C385.478058,289.666992 387.663086,282.115143 386.326172,273.994507 
	C384.190918,261.024658 374.088989,255.248840 364.108765,249.373688 
	C363.595551,249.071548 362.445038,248.854675 362.301270,249.070724 
	C359.858521,252.740662 357.217438,250.014633 354.834015,249.220444 
	C346.460602,246.430313 338.158447,243.426544 329.823853,240.519394 
	C325.842041,239.130478 320.921997,239.672699 316.553589,242.045151 
	C324.558746,245.140640 333.178192,246.150055 340.881500,251.067932 
	C338.218842,253.688461 337.523376,256.497803 338.956360,259.771332 
	C341.489197,265.557190 340.663849,267.722046 334.765015,269.851776 
	C330.863190,271.260498 326.732056,272.020752 322.775330,273.294128 
	C318.110046,274.795624 316.819183,278.752350 316.245850,283.063599 
	C315.707764,287.109711 317.545868,289.512207 321.273468,291.154938 
	C326.510193,293.462738 329.473969,297.742188 330.436127,303.426758 
	C331.547943,309.995605 332.204529,316.584717 332.357544,323.259827 
	C332.513916,330.082214 331.218079,336.788208 330.857178,343.271332 
	C333.989502,345.713043 336.725800,345.037994 339.560242,343.552460 
	C344.597565,340.912415 349.363220,337.881317 354.290710,333.798248 
z"/>
<path fill="#000000" opacity="1.000000" stroke="none" 
	d="
M265.948242,256.029419 
	C260.461182,259.967865 254.881607,262.951050 248.519409,263.972595 
	C237.211075,265.788300 228.389359,261.106964 221.224335,252.791748 
	C213.041138,243.294907 206.483826,232.656891 200.377747,221.767334 
	C197.408844,216.472610 193.994980,211.890854 188.993378,208.229523 
	C181.227951,202.544983 176.214478,194.794510 174.240967,185.234390 
	C174.071945,184.415649 173.746292,183.651749 174.743317,182.807205 
	C175.184158,183.160370 175.835190,183.447342 176.118073,183.943970 
	C179.931412,190.639023 185.509933,195.669418 191.907822,199.626297 
	C209.742203,210.656281 227.785385,221.342529 248.296753,226.848846 
	C257.744965,229.385223 267.397797,229.384857 277.034760,228.620361 
	C284.253296,228.047729 289.614288,222.608292 290.631134,215.463440 
	C290.790039,214.347031 290.877441,213.220459 291.012909,211.958527 
	C298.786987,217.014755 298.187408,231.517181 290.224823,236.918381 
	C287.138733,239.011765 283.682831,240.124634 279.933044,240.319122 
	C278.503296,240.393265 276.324860,240.109436 276.528870,242.212479 
	C277.158752,248.706345 271.445740,250.610565 268.219604,254.303772 
	C267.684235,254.916672 266.906250,255.317612 265.948242,256.029419 
M239.084229,238.382965 
	C239.536880,239.431992 239.791351,240.640152 240.480988,241.498856 
	C242.233109,243.680466 244.583649,244.280457 247.181549,243.190201 
	C249.100250,242.384979 250.774872,241.086166 250.615219,238.772629 
	C250.412369,235.833344 247.548584,236.242249 245.740585,235.357071 
	C245.000900,234.994934 244.175873,234.811005 243.401215,234.515686 
	C240.367645,233.359283 238.995682,234.508759 239.084229,238.382965 
z"/>
<path fill="#000000" opacity="1.000000" stroke="none" 
	d="
M147.250931,269.483398 
	C148.398544,270.355072 149.773422,270.493378 150.020691,271.929657 
	C148.999649,273.188629 147.878967,272.303497 146.934189,271.944794 
	C107.212433,256.863831 72.468979,234.218918 43.376511,203.180893 
	C33.792778,192.956268 26.593437,181.238358 24.061962,167.129395 
	C23.887722,166.158279 23.531914,165.173523 24.361074,164.182877 
	C26.682127,164.071136 27.106693,166.292023 28.063578,167.589218 
	C35.188412,177.247940 42.836185,186.478043 50.453556,195.746323 
	C69.688507,219.150040 94.185608,236.084351 119.331726,252.231598 
	C128.440613,258.080750 137.740112,263.633026 147.250931,269.483398 
z"/>
<path fill="#000000" opacity="1.000000" stroke="none" 
	d="
M214.294449,173.815186 
	C198.523071,169.003540 182.937500,165.007721 166.755035,161.099762 
	C174.849945,157.417343 210.131302,162.189972 232.438553,169.466248 
	C253.798615,176.433594 272.509583,187.714081 288.502472,203.672287 
	C264.009186,193.392746 240.035477,181.927170 214.294449,173.815186 
z"/>
<path fill="#000000" opacity="1.000000" stroke="none" 
	d="
M350.869019,258.058411 
	C348.285431,256.297424 344.363373,257.061859 343.597015,253.132858 
	C347.701477,252.329483 351.866119,254.335922 356.600677,259.304504 
	C354.421906,260.666748 352.867432,259.128082 350.869019,258.058411 
z"/>
</svg>